<svg xmlns="http://www.w3.org/2000/svg" version="1.1" xmlns:xlink="http://www.w3.org/1999/xlink" width="512" height="512" x="0" y="0" viewBox="0 0 512 512" style="enable-background:new 0 0 512 512" xml:space="preserve" class=""><g><path fill-rule="evenodd" d="M466.443 172.948v166.145c0 17.348-14.142 31.456-31.484 31.456H273.032c-8.04 0-14.56 6.542-14.56 14.578v54.16c0 9.476-5.304 17.261-14.141 20.695-8.823 3.429-18.005 1.294-24.411-5.676L51.45 271.016c-7.858-8.549-7.858-21.49 0-30.039l168.47-183.29c4.202-4.571 9.817-7.276 16.049-7.276 2.869 0 5.692.612 8.361 1.648 8.853 3.434 14.141 11.204 14.141 20.695v54.113c0 8.036 6.52 14.578 14.56 14.578h161.926c17.372 0 31.486 14.136 31.486 31.503z" clip-rule="evenodd" fill="#000000" opacity="1" data-original="#000000" class=""></path></g></svg>