<?xml version="1.0" encoding="UTF-8"?>
<svg id="Layer_2" data-name="Layer 2" xmlns="http://www.w3.org/2000/svg" viewBox="0 0 568.9 147.38">
  <defs>
    <style>
      .cls-1 {
        fill: #000;
      }

      .cls-1, .cls-2, .cls-3 {
        stroke-width: 0px;
      }

      .cls-2 {
        fill: #291e30;
      }

      .cls-3 {
        fill: #fc5e02;
      }
    </style>
  </defs>
  <g id="Layer_1-2" data-name="Layer 1">
    <path class="cls-3" d="M87.37,2.94l-9.29,23.25,9.03,18.71,9.85-24.14h21.48v82.35c0,3.14-1.26,6.16-3.49,8.38-2.23,2.22-5.25,3.47-8.4,3.47-2.51,0-6.85-1.4-8.57-4.8l-13.14-28.82-.09.14-21.69-47.35.07-.09-9.1-19.88C48.9,3.84,38.4,0,29.78,0c-7.9,0-15.47,3.13-21.06,8.7C3.14,14.26,0,21.82,0,29.69l.3,100.14h45.09l11.66-25.15-9.01-18.72-12.26,26.05h-17.89V29.69c0-3.15,1.25-6.17,3.49-8.39,2.23-2.23,5.26-3.48,8.42-3.48,1.59,0,6.94.36,8.9,5.54l10.09,22.11,3.34,7.38,21.6,47.35c3.77,8.09,7.95,17.05,9.79,20.9,3.74,7.8,13.47,11.7,23.04,11.7,3.91,0,7.78-.77,11.4-2.26,3.61-1.49,6.9-3.68,9.66-6.44,2.77-2.76,4.96-6.03,6.45-9.63,1.5-3.6,2.27-7.46,2.27-11.36V2.94h-48.94Z"/>
    <g>
      <path class="cls-2" d="M176.16,50.15V5.26c-.01-.1,0-.2.03-.3.03-.1.09-.18.17-.25.08-.07.17-.13.27-.16.1-.03.21-.04.32-.03h9.5c.19,0,.38.04.54.13.16.1.29.23.37.4l20.49,31.86h.35V5.26c-.01-.1,0-.2.03-.3.03-.1.09-.18.17-.25.08-.07.17-.13.27-.16.1-.03.21-.04.32-.03h7.89c.11-.01.21,0,.32.03.1.03.19.09.27.16.08.07.13.16.17.25.03.1.04.2.03.3v45.1c.01.1,0,.2-.03.3-.03.1-.09.18-.17.25-.08.07-.17.13-.27.16-.1.03-.21.04-.32.03h-9.5c-.18-.05-.34-.14-.47-.27-.12-.13-.2-.29-.23-.47l-20.79-31.98h-.26v31.77c.01.1,0,.2-.03.3-.03.1-.09.18-.17.25-.08.07-.17.12-.27.16-.1.03-.21.04-.32.03h-7.89c-.11.01-.21,0-.32-.03-.1-.03-.19-.09-.27-.16-.08-.07-.13-.16-.17-.25-.03-.1-.04-.2-.03-.3"/>
      <path class="cls-2" d="M269.65,40.15v-17.96h-4.72c-.1.01-.2,0-.3-.03-.1-.03-.18-.08-.26-.16-.07-.07-.13-.16-.16-.25-.03-.1-.04-.2-.03-.3v-5.43c0-.52.26-.78.74-.78h4.72V5.58c0-.1,0-.2.04-.29.03-.09.09-.18.16-.25.07-.07.15-.13.25-.17.09-.04.19-.06.29-.06l8.19-.06c.11-.01.21,0,.32.03.1.03.19.09.27.17.08.07.13.17.17.27.03.1.04.21.03.31v8.91c0,.36.29.65.65.65h8.77c.11-.01.21,0,.32.03.1.03.19.09.27.17.08.08.13.17.17.27.03.1.04.21.03.31v5.6c0,.1,0,.2-.05.3-.04.09-.1.18-.17.25-.07.07-.16.12-.26.15-.1.03-.2.04-.3.03h-9.42v20.89c0,.36.29.65.65.65h8.77c.1-.01.21,0,.3.03.1.03.19.08.26.15.08.07.13.16.17.25.04.09.05.2.05.3v5.43c.01.1,0,.21-.03.31-.03.1-.09.19-.17.27-.08.08-.17.13-.27.17-.1.03-.21.04-.32.03h-8.33c-1.45.17-2.91.01-4.29-.45-1.38-.47-2.63-1.23-3.67-2.24-1.04-1.01-1.83-2.23-2.33-3.59-.49-1.35-.67-2.8-.53-4.23"/>
      <path class="cls-2" d="M377.75,50.1v-24.21c-.21-1.46-.07-2.96.4-4.36.47-1.4,1.27-2.68,2.32-3.73,1.06-1.05,2.34-1.84,3.76-2.31,1.42-.47,2.93-.61,4.41-.41h10.85c.11-.01.21,0,.32.03.1.03.19.09.27.17.08.08.13.17.17.27.03.1.04.21.03.31v6.29c0,.1,0,.21-.05.3-.04.1-.09.18-.17.26-.07.07-.16.13-.26.17-.1.04-.2.05-.31.05h-11.47c-.36,0-.65.29-.65.65v26.53c0,.52-.26.78-.7.78h-8.15c-.11.01-.21,0-.32-.03-.1-.03-.19-.09-.27-.17-.08-.07-.13-.17-.17-.27-.03-.1-.05-.21-.03-.31"/>
      <path class="cls-2" d="M334.01,33.5c0-.25,0-.49,0-.74-.12-2.34.25-4.68,1.09-6.88.88-2.31,2.25-4.41,4.01-6.16,1.77-1.74,3.9-3.09,6.24-3.95,3.29-1.3,10.98-1.47,14.7-.03,2.35.85,4.49,2.2,6.27,3.95,1.78,1.75,3.16,3.85,4.04,6.17.83,2.2,1.21,4.54,1.09,6.88-.01.26-.01.52,0,.77.09,2.33-.3,4.65-1.15,6.83-.89,2.3-2.27,4.38-4.05,6.11-1.78,1.73-3.91,3.06-6.25,3.9-4.53,1.57-10.46,1.68-14.61-.03-2.33-.85-4.45-2.18-6.21-3.91-1.77-1.72-3.14-3.8-4.03-6.09-.84-2.18-1.23-4.5-1.14-6.83M352.69,44.2c5.84,0,9.13-4.05,9.13-11.07s-3.38-11.2-9.13-11.2-9.13,4.05-9.13,11.2,3.24,11.07,9.13,11.07Z"/>
      <path class="cls-2" d="M293.86,33.13c-.14-2.47.25-4.93,1.15-7.24.9-2.31,2.28-4.4,4.05-6.14,1.78-1.74,3.91-3.09,6.25-3.95,2.34-.86,4.84-1.23,7.34-1.07,9.22-.05,15.85,4.57,16.94,12.53.01.11,0,.22-.03.32-.03.1-.09.2-.17.27-.08.08-.17.14-.27.18-.1.04-.21.06-.32.05l-7.83.39c-.48,0-.7-.26-.83-.78-.11-.86-.4-1.69-.83-2.44-.44-.75-1.02-1.41-1.72-1.94-.7-.53-1.49-.92-2.34-1.14-.85-.22-1.73-.28-2.6-.16-5.71,0-8.93,4.31-8.93,11.2s3.31,11.07,8.93,11.07c1.8.25,3.63-.21,5.09-1.27,1.46-1.06,2.36-2.45,2.66-4.22,0-.11.02-.21.06-.31.04-.1.1-.18.18-.26.08-.07.17-.13.27-.17.1-.04.21-.05.31-.05l7.93.22c.48,0,.83.26.78.69-1.22,7.93-8,12.55-17.38,12.5-2.49.18-4.99-.16-7.33-1.01-2.34-.85-4.47-2.19-6.24-3.93-1.77-1.74-3.15-3.83-4.03-6.13-.88-2.31-1.26-4.77-1.1-7.23"/>
      <path class="cls-2" d="M224.21,33.13c-.18-2.48.19-4.97,1.07-7.29.89-2.33,2.27-4.44,4.06-6.18,1.79-1.75,3.94-3.09,6.3-3.94,2.36-.85,4.89-1.18,7.39-.98,10.9,0,17.43,6.89,17.43,18.26v1.94c0,.21-.08.4-.23.55-.15.15-.35.23-.55.23h-25.54c-.04,1.17.17,2.33.61,3.41.44,1.08,1.11,2.06,1.96,2.87.85.81,1.86,1.44,2.97,1.84,1.11.4,2.29.57,3.47.49,1.58.22,3.19-.09,4.58-.86,1.39-.78,2.35-1.72,2.96-3.17.03-.2.14-.38.3-.5.16-.12.37-.17.57-.15l7.84.38c.57,0,.83,0,.74.56-1.26,6.81-8.77,10.76-17.25,10.67-2.47.18-4.96-.16-7.28-1-2.33-.84-4.45-2.17-6.22-3.88-1.77-1.72-3.15-3.79-4.04-6.07-.9-2.28-1.29-4.73-1.15-7.18M251.15,29.99c.07-1.07-.08-2.15-.45-3.16-.37-1.01-.96-1.93-1.71-2.7-.76-.77-1.67-1.38-2.68-1.78-1.01-.4-2.09-.59-3.18-.55-1.14-.1-2.3.05-3.38.41-1.09.37-2.08.96-2.93,1.73-.84.77-1.52,1.7-1.98,2.75-.46,1.04-.69,2.16-.69,3.3h17Z"/>
      <path class="cls-2" d="M403.75,33.13c-.18-2.48.19-4.97,1.07-7.29.89-2.33,2.27-4.44,4.06-6.18,1.79-1.75,3.94-3.09,6.3-3.94,2.36-.85,4.89-1.18,7.39-.98,10.9,0,17.43,6.89,17.43,18.26v1.94c0,.21-.08.4-.23.55-.15.15-.35.23-.55.23h-25.54c-.04,1.17.17,2.33.61,3.41.44,1.08,1.11,2.06,1.96,2.87.85.81,1.86,1.44,2.97,1.84,1.11.4,2.29.57,3.47.49,1.58.22,3.19-.09,4.58-.86,1.39-.78,2.35-1.72,2.96-3.17.03-.2.14-.38.3-.5.16-.12.37-.17.57-.15l7.84.38c.57,0,.83,0,.74.56-1.26,6.81-8.77,10.76-17.25,10.67-2.47.18-4.96-.16-7.28-1-2.33-.84-4.45-2.17-6.22-3.88-1.77-1.72-3.15-3.79-4.04-6.07-.9-2.28-1.29-4.73-1.15-7.18M430.69,29.99c.07-1.07-.08-2.15-.45-3.16-.37-1.01-.96-1.93-1.71-2.7-.76-.77-1.67-1.38-2.68-1.78-1.01-.4-2.09-.59-3.18-.55-1.14-.1-2.3.05-3.38.41-1.09.37-2.08.96-2.93,1.73-.84.77-1.52,1.7-1.98,2.75-.46,1.04-.69,2.16-.69,3.3h17Z"/>
    </g>
    <g>
      <path class="cls-1" d="M217.99,112.87h-26.89c.66,4.92,3.03,6.39,6.97,6.39,3.44,0,5.33-1.48,6.23-4.02l13.28,3.93c-2.05,7.62-10.74,11.39-19.67,11.39-14.26,0-22.79-7.79-22.79-21.31s8.94-21.31,22.13-21.31,21.15,8.03,21.15,19.75c0,1.88-.16,3.93-.41,5.16ZM191.1,105.66h11.64c-.41-4.26-1.97-6.48-5.49-6.48s-5.49,1.8-6.15,6.48Z"/>
      <path class="cls-1" d="M224.46,88.77h14.92l.41,8.44c2.46-5.98,7.3-9.26,14.02-9.26,6.15,0,10.57,2.87,12.46,8.2,2.54-5.33,7.54-8.2,13.69-8.2,8.03,0,13.44,4.92,13.36,14.1l-.25,27.71h-16.31v-23.61c0-4.34-1.48-5.82-4.1-5.82-3.36,0-5.49,2.54-5.49,7.79v21.64h-16.56v-23.61c0-4.34-1.48-5.82-4.1-5.82-3.2,0-5.49,2.38-5.49,7.87v21.56h-16.56v-40.99Z"/>
      <path class="cls-1" d="M345.12,120.33l-.82,8.85c-1.8.9-4.02,1.39-6.64,1.39-5.82,0-10.16-2.13-11.64-6.48-2.21,4.02-7.46,6.48-13.28,6.48-8.52,0-13.61-4.02-13.61-11.07,0-5.98,3.77-9.84,11.15-11.31l13.53-2.87v-1.31c0-3.2-1.72-5.08-4.67-5.08s-5,1.23-5.57,5.49l-14.02-2.54c1.07-8.52,7.95-13.93,20.74-13.93s19.92,5.9,19.92,15.66v13.77c0,2.21.98,3.28,3.12,3.28.66,0,1.31-.08,1.8-.33ZM323.81,115.42v-3.03l-4.84,1.07c-2.71.66-3.93,1.8-3.93,3.93s1.56,3.28,3.77,3.28c2.62,0,5-1.72,5-5.25Z"/>
      <path class="cls-1" d="M348.16,77.87c0-5.25,2.62-7.38,9.26-7.38s9.26,2.13,9.26,7.38-2.62,7.29-9.26,7.29-9.26-2.13-9.26-7.29ZM365.7,129.76h-16.56v-40.99h16.56v40.99Z"/>
      <path class="cls-1" d="M390.21,114.51c0,3.44.98,4.92,3.69,4.92,1.39,0,2.21-.16,3.44-.57l-.9,9.34c-1.97,1.39-5.98,2.38-9.43,2.38-9.51,0-13.36-3.93-13.36-13.69v-45h16.56v42.62Z"/>
      <path class="cls-1" d="M444.47,71.89v57.87h-14.92l-.49-8.12c-2.3,5.41-6.89,8.93-13.2,8.93-10.08,0-16.15-7.79-16.15-21.15s6.31-21.48,16.39-21.48c5.82,0,9.67,3.03,11.8,7.79v-23.85h16.56ZM427.91,109.19c0-6.07-1.97-9.34-5.66-9.34s-5.9,2.38-5.9,9.43,2.21,9.51,5.9,9.51,5.66-3.2,5.66-9.59Z"/>
      <path class="cls-1" d="M495.29,109.27c0,13.44-9.02,21.31-22.3,21.31s-22.3-7.87-22.3-21.31,9.02-21.31,22.3-21.31,22.3,7.87,22.3,21.31ZM467.34,109.27c0,7.46,2.05,9.92,5.66,9.92s5.66-2.46,5.66-9.92-2.05-9.92-5.66-9.92-5.66,2.46-5.66,9.92Z"/>
      <path class="cls-1" d="M518.08,131.4c0,11.39-5.66,15.98-17.05,15.98-4.84,0-8.61-.82-11.64-2.54l2.13-10.08c1.15.74,2.62,1.23,4.67,1.23,3.28,0,5.33-1.56,5.33-6.07v-41.15h16.56v42.62ZM500.54,77.87c0-5.25,2.62-7.38,9.26-7.38s9.26,2.13,9.26,7.38-2.62,7.29-9.26,7.29-9.26-2.13-9.26-7.29Z"/>
      <path class="cls-1" d="M568.9,109.27c0,13.44-9.02,21.31-22.3,21.31s-22.3-7.87-22.3-21.31,9.02-21.31,22.3-21.31,22.3,7.87,22.3,21.31ZM540.95,109.27c0,7.46,2.05,9.92,5.66,9.92s5.66-2.46,5.66-9.92-2.05-9.92-5.66-9.92-5.66,2.46-5.66,9.92Z"/>
    </g>
  </g>
</svg>